<?xml version="1.0" encoding="UTF-8" standalone="no"?>
<svg
   xmlns:dc="http://purl.org/dc/elements/1.1/"
   xmlns:cc="http://creativecommons.org/ns#"
   xmlns:rdf="http://www.w3.org/1999/02/22-rdf-syntax-ns#"
   xmlns:svg="http://www.w3.org/2000/svg"
   xmlns="http://www.w3.org/2000/svg"
   xmlns:sodipodi="http://sodipodi.sourceforge.net/DTD/sodipodi-0.dtd"
   xmlns:inkscape="http://www.inkscape.org/namespaces/inkscape"
   width="40"
   height="40"
   viewBox="0 0 40 40"
   id="svg4145"
   version="1.1"
   sodipodi:docname="bus.svg"
   inkscape:version="0.92.2 (5c3e80d, 2017-08-06)">
  <defs
     id="defs4147" />
  <sodipodi:namedview
     id="base"
     pagecolor="#ffffff"
     bordercolor="#666666"
     borderopacity="1.0"
     showgrid="false"
     units="px"
     inkscape:zoom="13.4"
     inkscape:cx="1.2313434"
     inkscape:cy="20"
     inkscape:window-width="1366"
     inkscape:window-height="705"
     inkscape:window-x="-8"
     inkscape:window-y="-8"
     inkscape:window-maximized="1"
     inkscape:current-layer="layer1" />
  <metadata
     id="metadata4150">
    <rdf:RDF>
      <cc:Work
         rdf:about="">
        <dc:format>image/svg+xml</dc:format>
        <dc:type
           rdf:resource="http://purl.org/dc/dcmitype/StillImage" />
        <dc:title />
      </cc:Work>
    </rdf:RDF>
  </metadata>
  <g
     id="layer1">
    <path
       style="fill:#008000;fill-opacity:1;stroke:#333333;stroke-width:1.89999998;stroke-miterlimit:4;stroke-dasharray:none;stroke-opacity:1"
       d="m 20.001953,3.6816406 -1.130859,3.390625 a 12.37437,12.37437 0 0 1 1.130859,-0.0625 12.37437,12.37437 0 0 1 1.128906,0.056641 z M 20,7.625 A 12.37437,12.37437 0 0 0 7.625,20 12.37437,12.37437 0 0 0 20,32.375 12.37437,12.37437 0 0 0 32.375,20 12.37437,12.37437 0 0 0 20,7.625 Z"
       id="background"
       inkscape:connector-curvature="0" />
    <g
       transform="matrix(0.07145683,0,0,0.07145683,-15.359325,6.9831201)"
       id="g89" />
    <g
       transform="matrix(0.07145683,0,0,0.07145683,-15.359325,6.9831201)"
       id="g91" />
    <g
       transform="matrix(0.07145683,0,0,0.07145683,-15.359325,6.9831201)"
       id="g93" />
    <g
       transform="matrix(0.07145683,0,0,0.07145683,-15.359325,6.9831201)"
       id="g95" />
    <g
       transform="matrix(0.07145683,0,0,0.07145683,-15.359325,6.9831201)"
       id="g97" />
    <g
       transform="matrix(0.07145683,0,0,0.07145683,-15.359325,6.9831201)"
       id="g99" />
    <g
       transform="matrix(0.07145683,0,0,0.07145683,-15.359325,6.9831201)"
       id="g101" />
    <g
       transform="matrix(0.07145683,0,0,0.07145683,-15.359325,6.9831201)"
       id="g103" />
    <g
       transform="matrix(0.07145683,0,0,0.07145683,-15.359325,6.9831201)"
       id="g105" />
    <g
       transform="matrix(0.07145683,0,0,0.07145683,-15.359325,6.9831201)"
       id="g107" />
    <g
       transform="matrix(0.07145683,0,0,0.07145683,-15.359325,6.9831201)"
       id="g109" />
    <g
       transform="matrix(0.07145683,0,0,0.07145683,-15.359325,6.9831201)"
       id="g111" />
    <g
       transform="matrix(0.07145683,0,0,0.07145683,-15.359325,6.9831201)"
       id="g113" />
    <g
       transform="matrix(0.07145683,0,0,0.07145683,-15.359325,6.9831201)"
       id="g115" />
    <g
       transform="matrix(0.07145683,0,0,0.07145683,-15.359325,6.9831201)"
       id="g117" />
    <g
       transform="matrix(0.03188914,0,0,0.03188914,-18.701477,9.5700122)"
       id="g1176" />
    <g
       transform="matrix(0.03188914,0,0,0.03188914,-18.701477,9.5700122)"
       id="g1178" />
    <g
       transform="matrix(0.03188914,0,0,0.03188914,-18.701477,9.5700122)"
       id="g1180" />
    <g
       transform="matrix(0.03188914,0,0,0.03188914,-18.701477,9.5700122)"
       id="g1182" />
    <g
       transform="matrix(0.03188914,0,0,0.03188914,-18.701477,9.5700122)"
       id="g1184" />
    <g
       transform="matrix(0.03188914,0,0,0.03188914,-18.701477,9.5700122)"
       id="g1186" />
    <g
       transform="matrix(0.03188914,0,0,0.03188914,-18.701477,9.5700122)"
       id="g1188" />
    <g
       transform="matrix(0.03188914,0,0,0.03188914,-18.701477,9.5700122)"
       id="g1190" />
    <g
       transform="matrix(0.03188914,0,0,0.03188914,-18.701477,9.5700122)"
       id="g1192" />
    <g
       transform="matrix(0.03188914,0,0,0.03188914,-18.701477,9.5700122)"
       id="g1194" />
    <g
       transform="matrix(0.03188914,0,0,0.03188914,-18.701477,9.5700122)"
       id="g1196" />
    <g
       transform="matrix(0.03188914,0,0,0.03188914,-18.701477,9.5700122)"
       id="g1198" />
    <g
       transform="matrix(0.03188914,0,0,0.03188914,-18.701477,9.5700122)"
       id="g1200" />
    <g
       transform="matrix(0.03188914,0,0,0.03188914,-18.701477,9.5700122)"
       id="g1202" />
    <g
       transform="matrix(0.03188914,0,0,0.03188914,-18.701477,9.5700122)"
       id="g1204" />
    <g
       transform="matrix(0.06026298,0,0,0.06026298,-18.954105,9.8416058)"
       id="icon"
       inkscape:label="#icon">
      <g
         id="g1468">
        <path
           id="path1466"
           d="m 794.14217,71.787586 h -292.083 c -10.701,0 -21.207,8.579 -23.348,19.064 l -11.675,42.618004 c -2.141,10.485 -3.892,27.819 -3.892,38.521 v 44.751 c 0,10.7 8.756,19.456 19.457,19.456 h 19.839 c 0,-21.17 17.226,-38.395 38.398,-38.395 21.174,0 38.401,17.223 38.401,38.395 h 114.358 c 0,-21.17 17.227,-38.395 38.398,-38.395 21.176,0 38.402,17.223 38.402,38.395 h 23.74 c 10.703,0 19.457,-8.754 19.457,-19.456 V 91.243586 c 0.005,-10.701 -8.751,-19.456 -19.452,-19.456 z m -250.142,82.095004 h -45.344 l 7.186,-17.019 c 1.254,-2.97 -0.137,-6.394 -3.106,-7.648 -2.972,-1.254 -6.395,0.138 -7.647,3.107 l -8.91,21.103 c -6.015,-1.581 -9.676,-7.214 -8.437,-13.89 l 10.46,-41.740004 c 1.465,-7.891 9.23,-14.348 17.256,-14.348 h 38.543 z m 86.583,0 h -74.909 V 83.447586 h 74.909 z m 86.582,0 h -74.908 V 83.447586 h 74.908 z m 84.502,-14.592 c 0,8.026 -6.566,14.593 -14.594,14.593 h -58.234 V 83.448586 h 58.234 c 8.027,0 14.594,6.567 14.594,14.593 z m -69.669,64.349 c -17.986,0 -32.561,14.571 -32.561,32.559 0,17.988 14.574,32.559 32.561,32.559 17.992,0 32.564,-14.57 32.564,-32.559 0,-17.989 -14.572,-32.559 -32.564,-32.559 z m 0,46.713 c -7.818,0 -14.154,-6.334 -14.154,-14.154 0,-7.822 6.336,-14.154 14.154,-14.154 7.82,0 14.16,6.332 14.16,14.154 0,7.82 -6.34,14.154 -14.16,14.154 z m -191.159,-46.713 c -17.985,0 -32.562,14.571 -32.562,32.559 0,17.988 14.576,32.559 32.562,32.559 17.992,0 32.564,-14.57 32.564,-32.559 0,-17.989 -14.572,-32.559 -32.564,-32.559 z m 0,46.713 c -7.818,0 -14.153,-6.334 -14.153,-14.154 0,-7.822 6.335,-14.154 14.153,-14.154 7.819,0 14.159,6.332 14.159,14.154 0,7.82 -6.34,14.154 -14.159,14.154 z M 860.63704,170.42528 A 216.09267,219.80773 0 0 1 644.54437,390.23301 216.09267,219.80773 0 0 1 428.45169,170.42528 216.09267,219.80773 0 0 1 644.54437,-49.382465 216.09267,219.80773 0 0 1 860.63704,170.42528 Z"
           style="fill:#333333;fill-opacity:1;stroke:none"
           inkscape:connector-curvature="0" />
      </g>
    </g>
    <g
       transform="matrix(0.06026298,0,0,0.06026298,-18.954105,9.8416058)"
       id="g1472" />
    <g
       transform="matrix(0.06026298,0,0,0.06026298,-18.954105,9.8416058)"
       id="g1474" />
    <g
       transform="matrix(0.06026298,0,0,0.06026298,-18.954105,9.8416058)"
       id="g1476" />
    <g
       transform="matrix(0.06026298,0,0,0.06026298,-18.954105,9.8416058)"
       id="g1478" />
    <g
       transform="matrix(0.06026298,0,0,0.06026298,-18.954105,9.8416058)"
       id="g1480" />
    <g
       transform="matrix(0.06026298,0,0,0.06026298,-18.954105,9.8416058)"
       id="g1482" />
    <g
       transform="matrix(0.06026298,0,0,0.06026298,-18.954105,9.8416058)"
       id="g1484" />
    <g
       transform="matrix(0.06026298,0,0,0.06026298,-18.954105,9.8416058)"
       id="g1486" />
    <g
       transform="matrix(0.06026298,0,0,0.06026298,-18.954105,9.8416058)"
       id="g1488" />
    <g
       transform="matrix(0.06026298,0,0,0.06026298,-18.954105,9.8416058)"
       id="g1490" />
    <g
       transform="matrix(0.06026298,0,0,0.06026298,-18.954105,9.8416058)"
       id="g1492" />
    <g
       transform="matrix(0.06026298,0,0,0.06026298,-18.954105,9.8416058)"
       id="g1494" />
    <g
       transform="matrix(0.06026298,0,0,0.06026298,-18.954105,9.8416058)"
       id="g1496" />
    <g
       transform="matrix(0.06026298,0,0,0.06026298,-18.954105,9.8416058)"
       id="g1498" />
    <g
       transform="matrix(0.06026298,0,0,0.06026298,-18.954105,9.8416058)"
       id="g1500" />
  </g>
</svg>
