<?xml version="1.0" encoding="UTF-8" standalone="no"?>
<svg
   xmlns:dc="http://purl.org/dc/elements/1.1/"
   xmlns:cc="http://creativecommons.org/ns#"
   xmlns:rdf="http://www.w3.org/1999/02/22-rdf-syntax-ns#"
   xmlns:svg="http://www.w3.org/2000/svg"
   xmlns="http://www.w3.org/2000/svg"
   xmlns:sodipodi="http://sodipodi.sourceforge.net/DTD/sodipodi-0.dtd"
   xmlns:inkscape="http://www.inkscape.org/namespaces/inkscape"
   width="40"
   height="40"
   viewBox="0 0 40 40"
   id="svg4145"
   version="1.1"
   sodipodi:docname="default.svg"
   inkscape:version="0.92.2 (5c3e80d, 2017-08-06)">
  <defs
     id="defs4147" />
  <sodipodi:namedview
     id="base"
     pagecolor="#ffffff"
     bordercolor="#666666"
     borderopacity="1.0"
     showgrid="false"
     units="px"
     inkscape:zoom="13.4"
     inkscape:cx="21.114034"
     inkscape:cy="20"
     inkscape:window-width="1366"
     inkscape:window-height="705"
     inkscape:window-x="-8"
     inkscape:window-y="-8"
     inkscape:window-maximized="1"
     inkscape:current-layer="layer1" />
  <metadata
     id="metadata4150">
    <rdf:RDF>
      <cc:Work
         rdf:about="">
        <dc:format>image/svg+xml</dc:format>
        <dc:type
           rdf:resource="http://purl.org/dc/dcmitype/StillImage" />
        <dc:title />
      </cc:Work>
    </rdf:RDF>
  </metadata>
  <g
     id="layer1">
    <path
       style="fill:#008000;fill-opacity:1;stroke:#333333;stroke-width:1.89999998;stroke-miterlimit:4;stroke-dasharray:none;stroke-opacity:1"
       d="m 20.001953,3.6816406 -1.130859,3.390625 a 12.37437,12.37437 0 0 1 1.130859,-0.0625 12.37437,12.37437 0 0 1 1.128906,0.056641 z M 20,7.625 A 12.37437,12.37437 0 0 0 7.625,20 12.37437,12.37437 0 0 0 20,32.375 12.37437,12.37437 0 0 0 32.375,20 12.37437,12.37437 0 0 0 20,7.625 Z"
       id="background"
       inkscape:connector-curvature="0" />
    <g
       transform="matrix(0.07145683,0,0,0.07145683,-15.359325,6.9831201)"
       id="g89" />
    <g
       transform="matrix(0.07145683,0,0,0.07145683,-15.359325,6.9831201)"
       id="g91" />
    <g
       transform="matrix(0.07145683,0,0,0.07145683,-15.359325,6.9831201)"
       id="g93" />
    <g
       transform="matrix(0.07145683,0,0,0.07145683,-15.359325,6.9831201)"
       id="g95" />
    <g
       transform="matrix(0.07145683,0,0,0.07145683,-15.359325,6.9831201)"
       id="g97" />
    <g
       transform="matrix(0.07145683,0,0,0.07145683,-15.359325,6.9831201)"
       id="g99" />
    <g
       transform="matrix(0.07145683,0,0,0.07145683,-15.359325,6.9831201)"
       id="g101" />
    <g
       transform="matrix(0.07145683,0,0,0.07145683,-15.359325,6.9831201)"
       id="g103" />
    <g
       transform="matrix(0.07145683,0,0,0.07145683,-15.359325,6.9831201)"
       id="g105" />
    <g
       transform="matrix(0.07145683,0,0,0.07145683,-15.359325,6.9831201)"
       id="g107" />
    <g
       transform="matrix(0.07145683,0,0,0.07145683,-15.359325,6.9831201)"
       id="g109" />
    <g
       transform="matrix(0.07145683,0,0,0.07145683,-15.359325,6.9831201)"
       id="g111" />
    <g
       transform="matrix(0.07145683,0,0,0.07145683,-15.359325,6.9831201)"
       id="g113" />
    <g
       transform="matrix(0.07145683,0,0,0.07145683,-15.359325,6.9831201)"
       id="g115" />
    <g
       transform="matrix(0.07145683,0,0,0.07145683,-15.359325,6.9831201)"
       id="g117" />
    <g
       transform="matrix(0.03188914,0,0,0.03188914,-18.701477,9.5700122)"
       id="g1176" />
    <g
       transform="matrix(0.03188914,0,0,0.03188914,-18.701477,9.5700122)"
       id="g1178" />
    <g
       transform="matrix(0.03188914,0,0,0.03188914,-18.701477,9.5700122)"
       id="g1180" />
    <g
       transform="matrix(0.03188914,0,0,0.03188914,-18.701477,9.5700122)"
       id="g1182" />
    <g
       transform="matrix(0.03188914,0,0,0.03188914,-18.701477,9.5700122)"
       id="g1184" />
    <g
       transform="matrix(0.03188914,0,0,0.03188914,-18.701477,9.5700122)"
       id="g1186" />
    <g
       transform="matrix(0.03188914,0,0,0.03188914,-18.701477,9.5700122)"
       id="g1188" />
    <g
       transform="matrix(0.03188914,0,0,0.03188914,-18.701477,9.5700122)"
       id="g1190" />
    <g
       transform="matrix(0.03188914,0,0,0.03188914,-18.701477,9.5700122)"
       id="g1192" />
    <g
       transform="matrix(0.03188914,0,0,0.03188914,-18.701477,9.5700122)"
       id="g1194" />
    <g
       transform="matrix(0.03188914,0,0,0.03188914,-18.701477,9.5700122)"
       id="g1196" />
    <g
       transform="matrix(0.03188914,0,0,0.03188914,-18.701477,9.5700122)"
       id="g1198" />
    <g
       transform="matrix(0.03188914,0,0,0.03188914,-18.701477,9.5700122)"
       id="g1200" />
    <g
       transform="matrix(0.03188914,0,0,0.03188914,-18.701477,9.5700122)"
       id="g1202" />
    <g
       transform="matrix(0.03188914,0,0,0.03188914,-18.701477,9.5700122)"
       id="g1204" />
    <g
       transform="matrix(0.06026298,0,0,0.06026298,-18.954105,9.8416058)"
       id="g1472" />
    <g
       transform="matrix(0.06026298,0,0,0.06026298,-18.954105,9.8416058)"
       id="g1474" />
    <g
       transform="matrix(0.06026298,0,0,0.06026298,-18.954105,9.8416058)"
       id="g1476" />
    <g
       transform="matrix(0.06026298,0,0,0.06026298,-18.954105,9.8416058)"
       id="g1478" />
    <g
       transform="matrix(0.06026298,0,0,0.06026298,-18.954105,9.8416058)"
       id="g1480" />
    <g
       transform="matrix(0.06026298,0,0,0.06026298,-18.954105,9.8416058)"
       id="g1482" />
    <g
       transform="matrix(0.06026298,0,0,0.06026298,-18.954105,9.8416058)"
       id="g1484" />
    <g
       transform="matrix(0.06026298,0,0,0.06026298,-18.954105,9.8416058)"
       id="g1486" />
    <g
       transform="matrix(0.06026298,0,0,0.06026298,-18.954105,9.8416058)"
       id="g1488" />
    <g
       transform="matrix(0.06026298,0,0,0.06026298,-18.954105,9.8416058)"
       id="g1490" />
    <g
       transform="matrix(0.06026298,0,0,0.06026298,-18.954105,9.8416058)"
       id="g1492" />
    <g
       transform="matrix(0.06026298,0,0,0.06026298,-18.954105,9.8416058)"
       id="g1494" />
    <g
       transform="matrix(0.06026298,0,0,0.06026298,-18.954105,9.8416058)"
       id="g1496" />
    <g
       transform="matrix(0.06026298,0,0,0.06026298,-18.954105,9.8416058)"
       id="g1498" />
    <g
       transform="matrix(0.06026298,0,0,0.06026298,-18.954105,9.8416058)"
       id="g1500" />
    <g
       id="g1640"
       transform="matrix(0.04558294,0,0,0.04558294,-19.317328,9.1175373)" />
    <g
       id="g1642"
       transform="matrix(0.04558294,0,0,0.04558294,-19.317328,9.1175373)" />
    <g
       id="g1644"
       transform="matrix(0.04558294,0,0,0.04558294,-19.317328,9.1175373)" />
    <g
       id="g1646"
       transform="matrix(0.04558294,0,0,0.04558294,-19.317328,9.1175373)" />
    <g
       id="g1648"
       transform="matrix(0.04558294,0,0,0.04558294,-19.317328,9.1175373)" />
    <g
       id="g1650"
       transform="matrix(0.04558294,0,0,0.04558294,-19.317328,9.1175373)" />
    <g
       id="g1652"
       transform="matrix(0.04558294,0,0,0.04558294,-19.317328,9.1175373)" />
    <g
       id="g1654"
       transform="matrix(0.04558294,0,0,0.04558294,-19.317328,9.1175373)" />
    <g
       id="g1656"
       transform="matrix(0.04558294,0,0,0.04558294,-19.317328,9.1175373)" />
    <g
       id="g1658"
       transform="matrix(0.04558294,0,0,0.04558294,-19.317328,9.1175373)" />
    <g
       id="g1660"
       transform="matrix(0.04558294,0,0,0.04558294,-19.317328,9.1175373)" />
    <g
       id="g1662"
       transform="matrix(0.04558294,0,0,0.04558294,-19.317328,9.1175373)" />
    <g
       id="g1664"
       transform="matrix(0.04558294,0,0,0.04558294,-19.317328,9.1175373)" />
    <g
       id="g1666"
       transform="matrix(0.04558294,0,0,0.04558294,-19.317328,9.1175373)" />
    <g
       id="g1668"
       transform="matrix(0.04558294,0,0,0.04558294,-19.317328,9.1175373)" />
    <g
       transform="matrix(0.04140625,0,0,0.04140625,9.000389,8.824757)"
       id="icon"
       style="fill:#333333;fill-opacity:1;stroke:none"
       inkscape:label="#icon">
      <g
         id="g161"
         style="fill:#333333;fill-opacity:1;stroke:none">
        <path
           id="path159"
           d="M 256,0 C 161.896,0 85.333,76.563 85.333,170.667 c 0,28.25 7.063,56.26 20.49,81.104 L 246.667,506.5 c 1.875,3.396 5.448,5.5 9.333,5.5 3.885,0 7.458,-2.104 9.333,-5.5 L 406.229,251.687 c 13.375,-24.76 20.438,-52.771 20.438,-81.021 C 426.667,76.563 350.104,0 256,0 Z m 0,256 c -47.052,0 -85.333,-38.281 -85.333,-85.333 0,-47.052 38.281,-85.333 85.333,-85.333 47.052,0 85.333,38.281 85.333,85.333 C 341.333,217.719 303.052,256 256,256 Z m 321.72409,6.78578 A 314.50296,319.90989 0 0 1 263.22112,582.69568 314.50296,319.90989 0 0 1 -51.281848,262.78578 314.50296,319.90989 0 0 1 263.22112,-57.124115 314.50296,319.90989 0 0 1 577.72409,262.78578 Z"
           inkscape:connector-curvature="0"
           style="fill:#333333;fill-opacity:1;stroke:none" />
      </g>
    </g>
    <g
       transform="matrix(0.04140625,0,0,0.04140625,-18.921388,9.5294742)"
       id="g165" />
    <g
       transform="matrix(0.04140625,0,0,0.04140625,-18.921388,9.5294742)"
       id="g167" />
    <g
       transform="matrix(0.04140625,0,0,0.04140625,-18.921388,9.5294742)"
       id="g169" />
    <g
       transform="matrix(0.04140625,0,0,0.04140625,-18.921388,9.5294742)"
       id="g171" />
    <g
       transform="matrix(0.04140625,0,0,0.04140625,-18.921388,9.5294742)"
       id="g173" />
    <g
       transform="matrix(0.04140625,0,0,0.04140625,-18.921388,9.5294742)"
       id="g175" />
    <g
       transform="matrix(0.04140625,0,0,0.04140625,-18.921388,9.5294742)"
       id="g177" />
    <g
       transform="matrix(0.04140625,0,0,0.04140625,-18.921388,9.5294742)"
       id="g179" />
    <g
       transform="matrix(0.04140625,0,0,0.04140625,-18.921388,9.5294742)"
       id="g181" />
    <g
       transform="matrix(0.04140625,0,0,0.04140625,-18.921388,9.5294742)"
       id="g183" />
    <g
       transform="matrix(0.04140625,0,0,0.04140625,-18.921388,9.5294742)"
       id="g185" />
    <g
       transform="matrix(0.04140625,0,0,0.04140625,-18.921388,9.5294742)"
       id="g187" />
    <g
       transform="matrix(0.04140625,0,0,0.04140625,-18.921388,9.5294742)"
       id="g189" />
    <g
       transform="matrix(0.04140625,0,0,0.04140625,-18.921388,9.5294742)"
       id="g191" />
    <g
       transform="matrix(0.04140625,0,0,0.04140625,-18.921388,9.5294742)"
       id="g193" />
  </g>
</svg>
